<svg id="Graph" xmlns="http://www.w3.org/2000/svg" viewBox="0 0 512 512"><g id="KLTS_-_Graph_-_Light" data-name="KLTS - Graph - Light"><path id="Secondary" d="M174.54,276.539c-23.254,5.244-46.3,13.984-70.386,26.563V249.768A322.072,322.072,0,0,1,153.4,232.2q11.784-3.111,23.743-5.193a84.322,84.322,0,0,0-2.6,49.53Zm54.832-100.2c-18.627-17.387-38.964-31.808-61.2-44.965L119.7,159.357c29.816,15.76,52.067,30.719,69.575,45.639A84.135,84.135,0,0,1,229.372,176.335Zm20.63-4.1c1.983-.14,3.979-.237,6-.237a83.588,83.588,0,0,1,41.393,10.916,251.959,251.959,0,0,0,.78-28.448,297.8,297.8,0,0,0-6.564-53.245L256,80.664l-16.489,9.52c6.65,24.114,10.095,45.37,10.682,65.672Q250.433,164.112,250,172.237Zm-64.76,129.007q-4.648,8.227-8.758,16.752a324.529,324.529,0,0,0-20.49,55.6l43.21,24.947c5.824-24.5,13.469-45.93,23.455-65.437A84.3,84.3,0,0,1,185.242,301.244ZM374.19,148.9c-19,18.863-37.743,34.831-58.691,47.809a83.826,83.826,0,0,1,22.786,42.325c25.366-15.381,47.642-34.187,69.561-55.9v-14.8ZM298.741,328.308A83.582,83.582,0,0,1,256,340q-2.149,0-4.272-.108c1.842,4.863,3.807,9.68,5.93,14.446,8.355,18.751,19.118,37.369,33,56.991l41.757-24.108c-13.306-18.382-23.351-35.46-30.908-52.419C300.542,332.644,299.63,330.478,298.741,328.308Zm40.874-64.358a83.578,83.578,0,0,1-18.131,44.635c26.246,8.936,54.539,14.141,86.362,16.028v-48.08a284.525,284.525,0,0,1-57.161-9.231Q345.087,265.763,339.615,263.95Z" fill="#fff" opacity="0.66"/><path id="Primary" d="M256,71.426l159.846,92.287V348.287L256,440.574,96.154,348.287V163.713L256,71.426M256,16,48.154,136V376L256,496,463.846,376V136L256,16Zm0,204a36,36,0,1,1-25.456,10.544A35.767,35.767,0,0,1,256,220m0-48a84,84,0,1,0,59.4,24.6A83.738,83.738,0,0,0,256,172Z" fill="#fff"/><rect id="Frame" width="512" height="512" fill="none"/></g></svg>